<svg width="32" height="32" viewBox="0 0 32 32" fill="none" xmlns="http://www.w3.org/2000/svg">
<rect width="32" height="32" rx="8" fill="url(#paint0_radial_49:890)"/>
<path d="M16.0011 4C12.7421 4 12.3331 4.01425 11.0531 4.0725C9.77556 4.13101 8.90355 4.33326 8.14054 4.63003C7.35128 4.93654 6.68178 5.34655 6.01477 6.01383C5.34726 6.68086 4.93726 7.35039 4.62976 8.13942C4.33225 8.9027 4.12975 9.77498 4.07225 11.052C4.015 12.3321 4 12.7414 4 16.0005C4 19.2596 4.0145 19.6674 4.0725 20.9474C4.13125 22.225 4.3335 23.097 4.63001 23.8601C4.93676 24.6493 5.34676 25.3189 6.01402 25.9859C6.68078 26.6534 7.35028 27.0644 8.13904 27.371C8.90255 27.6677 9.77481 27.87 11.0521 27.9285C12.3321 27.9867 12.7408 28.001 15.9996 28.001C19.2589 28.001 19.6667 27.9867 20.9467 27.9285C22.2242 27.87 23.0972 27.6677 23.8607 27.371C24.6497 27.0644 25.3182 26.6534 25.985 25.9859C26.6525 25.3189 27.0625 24.6493 27.37 23.8603C27.665 23.097 27.8675 22.2247 27.9275 20.9477C27.985 19.6676 28 19.2596 28 16.0005C28 12.7414 27.985 12.3323 27.9275 11.0523C27.8675 9.77473 27.665 8.9027 27.37 8.13967C27.0625 7.35039 26.6525 6.68086 25.985 6.01383C25.3175 5.3463 24.65 4.93629 23.86 4.63003C23.0949 4.33326 22.2224 4.13101 20.9449 4.0725C19.6649 4.01425 19.2574 4 15.9974 4H16.0011ZM14.9246 6.16259C15.2441 6.16209 15.6006 6.16259 16.0011 6.16259C19.2052 6.16259 19.5849 6.17409 20.8502 6.23159C22.0202 6.28509 22.6552 6.4806 23.0782 6.64486C23.6382 6.86237 24.0375 7.12238 24.4572 7.54239C24.8772 7.96241 25.1372 8.36243 25.3552 8.92245C25.5195 9.34497 25.7152 9.97999 25.7685 11.15C25.826 12.4151 25.8385 12.7951 25.8385 15.9977C25.8385 19.2004 25.826 19.5804 25.7685 20.8454C25.715 22.0155 25.5195 22.6505 25.3552 23.073C25.1377 23.633 24.8772 24.0318 24.4572 24.4516C24.0372 24.8716 23.6385 25.1316 23.0782 25.3491C22.6557 25.5141 22.0202 25.7091 20.8502 25.7626C19.5852 25.8201 19.2052 25.8326 16.0011 25.8326C12.7968 25.8326 12.4171 25.8201 11.1521 25.7626C9.98206 25.7086 9.34706 25.5131 8.9238 25.3489C8.3638 25.1314 7.96379 24.8713 7.54379 24.4513C7.12378 24.0313 6.86378 23.6323 6.64578 23.072C6.48153 22.6495 6.28577 22.0145 6.23252 20.8444C6.17502 19.5794 6.16352 19.1994 6.16352 15.9947C6.16352 12.7901 6.17502 12.4121 6.23252 11.147C6.28602 9.97699 6.48153 9.34197 6.64578 8.91895C6.86328 8.35893 7.12378 7.95891 7.54379 7.53889C7.96379 7.11888 8.3638 6.85887 8.9238 6.64086C9.34681 6.47585 9.98206 6.28084 11.1521 6.22709C12.2591 6.17709 12.6881 6.16209 14.9246 6.15959V6.16259ZM22.4067 8.15517C21.6117 8.15517 20.9667 8.79944 20.9667 9.59473C20.9667 10.3898 21.6117 11.0348 22.4067 11.0348C23.2017 11.0348 23.8467 10.3898 23.8467 9.59473C23.8467 8.79969 23.2017 8.15467 22.4067 8.15467V8.15517ZM16.0011 9.83774C12.5978 9.83774 9.83856 12.5971 9.83856 16.0005C9.83856 19.4039 12.5978 22.162 16.0011 22.162C19.4044 22.162 22.1627 19.4039 22.1627 16.0005C22.1627 12.5971 19.4042 9.83774 16.0009 9.83774H16.0011ZM16.0011 12.0003C18.2101 12.0003 20.0012 13.7911 20.0012 16.0005C20.0012 18.2096 18.2101 20.0007 16.0011 20.0007C13.7919 20.0007 12.0011 18.2096 12.0011 16.0005C12.0011 13.7911 13.7919 12.0003 16.0011 12.0003V12.0003Z" fill="white"/>
<defs>
<radialGradient id="paint0_radial_49:890" cx="0" cy="0" r="1" gradientUnits="userSpaceOnUse" gradientTransform="translate(8.50004 34.4647) rotate(-90) scale(31.7144 29.4969)">
<stop stop-color="#FFDD55"/>
<stop offset="0.1" stop-color="#FFDD55"/>
<stop offset="0.5" stop-color="#FF543E"/>
<stop offset="1" stop-color="#C837AB"/>
</radialGradient>
</defs>
</svg>
