<svg width="32" height="32" viewBox="0 0 32 32" fill="none" xmlns="http://www.w3.org/2000/svg">
<path d="M32 0H0V32H32V0Z" fill="#7D3DAF"/>
<path d="M26.1204 10.315L26.1141 10.2897C25.6029 8.22326 23.2984 6.00581 21.1821 5.54448L21.1582 5.53957C17.7351 4.88655 14.2643 4.88655 10.842 5.53957L10.8174 5.54448C8.70174 6.00581 6.39722 8.22326 5.88534 10.2897L5.87973 10.315C5.24777 13.2009 5.24777 16.1276 5.87973 19.0135L5.88534 19.0388C6.37539 21.017 8.50829 23.1326 10.5456 23.7144V26.0212C10.5456 26.8561 11.5631 27.2661 12.1417 26.6637L14.4788 24.2342C14.9857 24.2626 15.4929 24.2784 16.0001 24.2784C17.7232 24.2784 19.447 24.1155 21.1582 23.789L21.1821 23.7841C23.2984 23.3228 25.6029 21.1053 26.1141 19.0388L26.1204 19.0136C26.7524 16.1276 26.7524 13.2009 26.1204 10.315ZM24.2709 18.595C23.9297 19.9432 22.1799 21.6192 20.7896 21.9289C18.9695 22.275 17.135 22.4229 15.3023 22.3722C15.2659 22.3712 15.2309 22.3853 15.2054 22.4114C14.9454 22.6784 13.499 24.1632 13.499 24.1632L11.6839 26.026C11.5511 26.1644 11.318 26.0703 11.318 25.8793V22.0579C11.318 21.9948 11.2729 21.9412 11.2109 21.929C11.2106 21.929 11.2102 21.9289 11.2099 21.9288C9.81959 21.6192 8.07049 19.9431 7.72854 18.5949C7.15978 15.9864 7.15978 13.342 7.72854 10.7334C8.07049 9.38527 9.81959 7.7092 11.2099 7.39954C14.3886 6.79497 17.6116 6.79497 20.7896 7.39954C22.1806 7.7092 23.9297 9.38527 24.2709 10.7334C24.8403 13.3421 24.8403 15.9864 24.2709 18.595Z" fill="white"/>
<path d="M19.0243 20.3591C18.8105 20.2942 18.6068 20.2506 18.4177 20.1721C16.4575 19.3588 14.6535 18.3096 13.2245 16.7013C12.4119 15.7867 11.7759 14.7542 11.2382 13.6615C10.9832 13.1433 10.7684 12.6048 10.5494 12.0698C10.3497 11.5819 10.6438 11.0779 10.9535 10.7103C11.2442 10.3654 11.6182 10.1013 12.0232 9.90678C12.3393 9.7549 12.6511 9.84246 12.882 10.1104C13.3811 10.6897 13.8395 11.2986 14.2108 11.9701C14.439 12.3831 14.3764 12.888 13.9627 13.1691C13.8621 13.2374 13.7705 13.3176 13.6768 13.3947C13.5947 13.4624 13.5174 13.5307 13.4611 13.6222C13.3581 13.7898 13.3532 13.9874 13.4195 14.1695C13.9297 15.5716 14.7896 16.6619 16.2009 17.2491C16.4267 17.343 16.6535 17.4524 16.9136 17.4221C17.3493 17.3712 17.4904 16.8933 17.7957 16.6436C18.0941 16.3996 18.4755 16.3964 18.7969 16.5998C19.1184 16.8033 19.4301 17.0217 19.7399 17.2425C20.044 17.4592 20.3468 17.6712 20.6273 17.9182C20.897 18.1557 20.9899 18.4673 20.8381 18.7897C20.56 19.3801 20.1554 19.8713 19.5718 20.1848C19.407 20.2732 19.2101 20.3018 19.0243 20.3591C19.2101 20.3018 18.8105 20.2941 19.0243 20.3591Z" fill="white"/>
<path d="M16.0055 9.23154C18.5694 9.30337 20.6753 11.0049 21.1266 13.5398C21.2035 13.9717 21.2309 14.4133 21.2651 14.8516C21.2795 15.036 21.1751 15.2112 20.9761 15.2136C20.7705 15.2161 20.6781 15.0441 20.6647 14.8598C20.6383 14.4949 20.62 14.1285 20.5697 13.7666C20.3043 11.8567 18.7813 10.2765 16.8802 9.93743C16.5941 9.88638 16.3013 9.87297 16.0115 9.84256C15.8283 9.82332 15.5884 9.81223 15.5478 9.58452C15.5137 9.3936 15.6749 9.24158 15.8567 9.23182C15.9061 9.22908 15.9558 9.23132 16.0055 9.23154C15.9558 9.23132 18.5694 9.30337 16.0055 9.23154Z" fill="white"/>
<path d="M19.9019 14.2829C19.8977 14.315 19.8955 14.3902 19.8767 14.4612C19.8087 14.7186 19.4184 14.7508 19.3285 14.491C19.3019 14.4139 19.2979 14.3262 19.2978 14.2432C19.2969 13.7001 19.1788 13.1576 18.905 12.6852C18.6235 12.1995 18.1934 11.7913 17.689 11.5443C17.384 11.3949 17.0541 11.3021 16.7198 11.2468C16.5737 11.2226 16.426 11.2079 16.2792 11.1875C16.1013 11.1628 16.0063 11.0494 16.0147 10.874C16.0225 10.7097 16.1426 10.5916 16.3217 10.6017C16.9101 10.6351 17.4784 10.7623 18.0015 11.0393C19.0653 11.6026 19.673 12.4918 19.8503 13.6792C19.8583 13.733 19.8712 13.7863 19.8753 13.8403C19.8854 13.9736 19.8917 14.1071 19.9019 14.2829C19.8917 14.1071 19.8977 14.315 19.9019 14.2829Z" fill="white"/>
<path d="M18.3071 14.2205C18.0926 14.2244 17.9778 14.1057 17.9557 13.909C17.9403 13.7719 17.9281 13.6329 17.8954 13.4995C17.831 13.2367 17.6913 12.9932 17.4703 12.8322C17.3659 12.7562 17.2477 12.7008 17.1238 12.665C16.9664 12.6196 16.8031 12.6321 16.646 12.5936C16.4756 12.5518 16.3813 12.4138 16.4081 12.2538C16.4324 12.1083 16.5741 11.9947 16.7331 12.0062C17.7272 12.0779 18.4376 12.5919 18.539 13.7621C18.5462 13.8447 18.5546 13.9319 18.5363 14.0109C18.5049 14.1462 18.4048 14.2139 18.3071 14.2205C18.4048 14.2139 18.0926 14.2244 18.3071 14.2205Z" fill="white"/>
</svg>
