<svg width="32" height="32" viewBox="0 0 32 32" fill="none" xmlns="http://www.w3.org/2000/svg">
<rect width="32" height="32" rx="8" fill="#0089FF"/>
<path d="M26.1775 11.3888C26.3265 10.9721 26.1775 10.6665 25.4727 10.6665H23.138C22.5439 10.6665 22.2724 10.9309 22.1234 11.2213C22.1234 11.2213 20.9363 13.658 19.2542 15.2381C18.7113 15.6978 18.4632 15.843 18.1672 15.843C18.0193 15.843 17.8042 15.6978 17.8042 15.2811V11.3888C17.8042 10.8888 17.6328 10.6665 17.1378 10.6665H13.4691C13.0986 10.6665 12.875 10.8977 12.875 11.1182C12.875 11.5914 13.7161 11.7007 13.8023 13.0343V15.9272C13.8023 16.5609 13.6671 16.6765 13.369 16.6765C12.578 16.6765 10.6532 14.2307 9.51082 11.431C9.28832 10.887 9.06368 10.6674 8.46749 10.6674H6.13385C5.46633 10.6674 5.33325 10.9318 5.33325 11.2222C5.33325 11.7437 6.12426 14.3248 9.0179 17.7385C10.947 20.0695 13.6628 21.3332 16.137 21.3332C17.62 21.3332 17.8031 21.0527 17.8031 20.5687V18.8068C17.8031 18.2457 17.9447 18.1328 18.4142 18.1328C18.7592 18.1328 19.3532 18.2798 20.7383 19.4027C22.3203 20.7345 22.5822 21.3323 23.4712 21.3323H25.8048C26.4713 21.3323 26.8045 21.0518 26.6129 20.4979C26.4032 19.9467 25.6473 19.1446 24.6444 18.1955C24.0993 17.6542 23.2849 17.0717 23.0368 16.7804C22.6908 16.4049 22.7909 16.2391 23.0368 15.9057C23.0379 15.9066 25.8815 12.5351 26.1775 11.3888Z" fill="#F5F5F5"/>
</svg>
