<svg width="32" height="32" viewBox="0 0 32 32" fill="none" xmlns="http://www.w3.org/2000/svg">
<path d="M32 0H0V32H32V0Z" fill="#4CAF50"/>
<path d="M4.80933 27.2028L6.37678 21.6357C5.36881 19.9233 4.83811 17.975 4.83811 15.9736C4.83811 9.81099 9.85174 4.79736 16.0143 4.79736C22.1769 4.79736 27.1905 9.81099 27.1905 15.9736C27.1905 22.1362 22.1769 27.1498 16.0143 27.1498C14.0941 27.1498 12.2138 26.6583 10.5505 25.7249L4.80933 27.2028ZM10.844 23.6917L11.1861 23.9006C12.6363 24.7859 14.3059 25.2539 16.0143 25.2539C21.1315 25.2539 25.2946 21.0908 25.2946 15.9736C25.2946 10.8564 21.1315 6.69322 16.0143 6.69322C10.8971 6.69322 6.73397 10.8564 6.73397 15.9736C6.73397 17.7566 7.24073 19.4881 8.19933 20.9808L8.42971 21.3395L7.52707 24.5455L10.844 23.6917Z" fill="white"/>
<path d="M12.8748 10.7718L12.1496 10.7323C11.9218 10.7198 11.6984 10.796 11.5262 10.9455C11.1746 11.2508 10.6125 11.8411 10.4398 12.6102C10.1823 13.7571 10.5803 15.1614 11.6101 16.5657C12.64 17.9701 14.5592 20.217 17.953 21.1767C19.0466 21.4859 19.9069 21.2774 20.5707 20.8528C21.0964 20.5166 21.4588 19.9768 21.5894 19.3666L21.7052 18.8258C21.742 18.6539 21.6547 18.4795 21.495 18.4059L19.0441 17.2762C18.885 17.2029 18.6963 17.2492 18.5893 17.3879L17.6271 18.6352C17.5545 18.7295 17.43 18.7668 17.3177 18.7274C16.6588 18.4958 14.4516 17.5714 13.2405 15.2385C13.188 15.1373 13.201 15.0145 13.2755 14.9282L14.1951 13.8644C14.289 13.7558 14.3128 13.6031 14.2563 13.4711L13.1998 10.9994C13.1436 10.8678 13.0175 10.7796 12.8748 10.7718Z" fill="white"/>
</svg>
