<svg width="48" height="48" viewBox="0 0 48 48" fill="none" xmlns="http://www.w3.org/2000/svg">
<g clip-path="url(#clip0_49:783)">
<path d="M47.8401 6.71999L45.4401 3.51999C45.1493 3.16649 44.627 3.11579 44.2735 3.40659C44.2321 3.44059 44.1941 3.47859 44.1601 3.51999L41.7601 6.71999C41.6562 6.85849 41.6001 7.02689 41.6001 7.19999V44.8C41.6001 46.5673 43.0328 48 44.8001 48C46.5674 48 48.0001 46.5673 48.0001 44.8V7.19999C48.0001 7.02689 47.944 6.85849 47.8401 6.71999ZM46.4001 44.8C46.4001 45.6837 45.6838 46.4 44.8001 46.4C43.9164 46.4 43.2001 45.6837 43.2001 44.8V43.2H46.4001V44.8ZM46.4001 41.6H43.2001V40H46.4001V41.6ZM46.4001 38.4H43.2001V9.59999H46.4001V38.4ZM46.4001 7.99999H43.2001V7.46639L44.8001 5.33359L46.4001 7.46639V7.99999Z" fill="#0190C7"/>
<path d="M39.2032 0C39.2021 0 39.2011 0 39.2 0H4C3.5582 0 3.2 0.3582 3.2 0.8V14.48C1.3389 14.8628 0.0024 16.4999 0 18.4V44C0.0026 46.208 1.792 47.9974 4 48H32.8C33.0121 47.9995 33.2154 47.9153 33.3656 47.7656L39.7656 41.3656C39.8325 41.2976 39.8867 41.2182 39.9256 41.1312C39.9368 41.1064 39.9432 41.0824 39.952 41.0568C39.975 40.9896 39.989 40.9197 39.9936 40.8488C39.9936 40.832 40.0032 40.8168 40.0032 40.8V0.8C40.0032 0.3582 39.645 0 39.2032 0ZM24 44C24 45.3255 22.9255 46.4 21.6 46.4H4C2.6745 46.4 1.6 45.3255 1.6 44V18.4C1.6 17.0745 2.6745 16 4 16H21.6C22.9255 16 24 17.0745 24 18.4V44ZM13.6 9.6V14.4H8V9.6H13.6ZM8 8V4.8H13.6V8H8ZM20.8 9.6V14.4H15.2V9.6H20.8ZM15.2 8V4.8H20.8V8H15.2ZM22.4 14.48V9.6H28V20.8H25.6V18.4C25.5976 16.4999 24.2611 14.8628 22.4 14.48ZM22.4 8V4.8H28V8H22.4ZM33.6 45.2688V41.6H37.2688L33.6 45.2688ZM38.4 40H32.8C32.3582 40 32 40.3582 32 40.8V46.4H24.7792C25.3086 45.7117 25.5971 44.8684 25.6 44V22.4H36C36.4418 22.4 36.8 22.0418 36.8 21.6V4C36.8 3.5582 36.4418 3.2 36 3.2H7.2C6.7582 3.2 6.4 3.5582 6.4 4V14.4H4.8V1.6H38.4V40ZM35.2 9.6V20.8H29.6V9.6H35.2ZM29.6 8V4.8H35.2V8H29.6Z" fill="#0190C7"/>
<path d="M21.6 18.3999H3.99995C3.55815 18.3999 3.19995 18.7581 3.19995 19.1999V23.9999C3.19995 24.4417 3.55815 24.7999 3.99995 24.7999H21.6C22.0417 24.7999 22.4 24.4417 22.4 23.9999V19.1999C22.4 18.7581 22.0417 18.3999 21.6 18.3999ZM20.7999 23.1999H4.79995V19.9999H20.7999V23.1999Z" fill="#0190C7"/>
<path d="M22.4 32.8H17.6C17.1582 32.8 16.8 33.1582 16.8 33.6V43.2C16.8 43.6418 17.1582 44 17.6 44H22.4C22.8418 44 23.2 43.6418 23.2 43.2V33.6C23.2 33.1582 22.8418 32.8 22.4 32.8ZM21.6 42.4H18.4V34.4H21.6V42.4Z" fill="#0190C7"/>
<path d="M22.4 26.3999H17.6C17.1582 26.3999 16.8 26.7581 16.8 27.1999V30.3999C16.8 30.8417 17.1582 31.1999 17.6 31.1999H22.4C22.8418 31.1999 23.2 30.8417 23.2 30.3999V27.1999C23.2 26.7581 22.8418 26.3999 22.4 26.3999ZM21.6 29.5999H18.4V27.9999H21.6V29.5999Z" fill="#0190C7"/>
<path d="M15.2001 32.8H10.4001C9.9583 32.8 9.6001 33.1582 9.6001 33.6V36.8001C9.6001 37.2419 9.9583 37.6001 10.4001 37.6001H15.2001C15.6419 37.6001 16.0001 37.2419 16.0001 36.8001V33.6C16.0001 33.1582 15.6419 32.8 15.2001 32.8ZM14.4001 36.0001H11.2001V34.4H14.4001V36.0001Z" fill="#0190C7"/>
<path d="M15.2001 26.3999H10.4001C9.9583 26.3999 9.6001 26.7581 9.6001 27.1999V30.3999C9.6001 30.8417 9.9583 31.1999 10.4001 31.1999H15.2001C15.6419 31.1999 16.0001 30.8417 16.0001 30.3999V27.1999C16.0001 26.7581 15.6419 26.3999 15.2001 26.3999ZM14.4001 29.5999H11.2001V27.9999H14.4001V29.5999Z" fill="#0190C7"/>
<path d="M7.9999 32.8H3.1999C2.7581 32.8 2.3999 33.1582 2.3999 33.6V36.8001C2.3999 37.2419 2.7581 37.6001 3.1999 37.6001H7.9999C8.4417 37.6001 8.7999 37.2419 8.7999 36.8001V33.6C8.7999 33.1582 8.4417 32.8 7.9999 32.8ZM7.1999 36.0001H3.9999V34.4H7.1999V36.0001Z" fill="#0190C7"/>
<path d="M7.9999 26.3999H3.1999C2.7581 26.3999 2.3999 26.7581 2.3999 27.1999V30.3999C2.3999 30.8417 2.7581 31.1999 3.1999 31.1999H7.9999C8.4417 31.1999 8.7999 30.8417 8.7999 30.3999V27.1999C8.7999 26.7581 8.4417 26.3999 7.9999 26.3999ZM7.1999 29.5999H3.9999V27.9999H7.1999V29.5999Z" fill="#0190C7"/>
<path d="M15.2001 39.2H10.4001C9.9583 39.2 9.6001 39.5582 9.6001 40V43.2C9.6001 43.6418 9.9583 44 10.4001 44H15.2001C15.6419 44 16.0001 43.6418 16.0001 43.2V40C16.0001 39.5582 15.6419 39.2 15.2001 39.2ZM14.4001 42.4H11.2001V40.8H14.4001V42.4Z" fill="#0190C7"/>
<path d="M7.9999 39.2H3.1999C2.7581 39.2 2.3999 39.5582 2.3999 40V43.2C2.3999 43.6418 2.7581 44 3.1999 44H7.9999C8.4417 44 8.7999 43.6418 8.7999 43.2V40C8.7999 39.5582 8.4417 39.2 7.9999 39.2ZM7.1999 42.4H3.9999V40.8H7.1999V42.4Z" fill="#0190C7"/>
</g>
<defs>
<clipPath id="clip0_49:783">
<rect width="48" height="48" fill="white"/>
</clipPath>
</defs>
</svg>
