<svg width="48" height="48" viewBox="0 0 48 48" fill="none" xmlns="http://www.w3.org/2000/svg">
<path d="M13.5 3.75H4.5C4.08525 3.75 3.75 4.086 3.75 4.5V13.5C3.75 13.914 4.08525 14.25 4.5 14.25H13.5C13.9148 14.25 14.25 13.914 14.25 13.5V4.5C14.25 4.086 13.9148 3.75 13.5 3.75ZM12.75 12.75H5.25V5.25H12.75V12.75Z" fill="#0190C7"/>
<path d="M13.5 15.75H4.5C4.08525 15.75 3.75 16.086 3.75 16.5V25.5C3.75 25.9148 4.08525 26.25 4.5 26.25H13.5C13.9148 26.25 14.25 25.9148 14.25 25.5V16.5C14.25 16.086 13.9148 15.75 13.5 15.75ZM12.75 24.75H5.25V17.25H12.75V24.75Z" fill="#0190C7"/>
<path d="M13.5 27.75H4.5C4.08525 27.75 3.75 28.0853 3.75 28.5V37.5C3.75 37.9148 4.08525 38.25 4.5 38.25H13.5C13.9148 38.25 14.25 37.9148 14.25 37.5V28.5C14.25 28.0853 13.9148 27.75 13.5 27.75ZM12.75 36.75H5.25V29.25H12.75V36.75Z" fill="#0190C7"/>
<path d="M7.42573 11.9962C7.45123 11.9992 7.47598 12 7.49998 12C7.69798 12 7.88923 11.922 8.03023 11.7802L12.5302 7.28023L11.4697 6.21973L7.61623 10.0725L6.62398 8.58372L5.37598 9.41547L6.87598 11.6655C7.00048 11.853 7.20298 11.9745 7.42573 11.9962Z" fill="#0190C7"/>
<path d="M7.28023 23.7802L8.99998 22.0605L10.7197 23.7802L11.7802 22.7197L10.0605 21L11.7802 19.2802L10.7197 18.2197L8.99998 19.9395L7.28023 18.2197L6.21973 19.2802L7.93948 21L6.21973 22.7197L7.28023 23.7802Z" fill="#0190C7"/>
<path d="M7.28023 35.7802L8.99998 34.0605L10.7197 35.7802L11.7802 34.7197L10.0605 33L11.7802 31.2802L10.7197 30.2197L8.99998 31.9395L7.28023 30.2197L6.21973 31.2802L7.93948 33L6.21973 34.7197L7.28023 35.7802Z" fill="#0190C7"/>
<path d="M19.5 5.25H29.25V6.75H19.5V5.25Z" fill="#0190C7"/>
<path d="M15.75 8.25H29.25V9.75H15.75V8.25Z" fill="#0190C7"/>
<path d="M15.75 11.25H29.25V12.75H15.75V11.25Z" fill="#0190C7"/>
<path d="M19.5 17.25H29.25V18.75H19.5V17.25Z" fill="#0190C7"/>
<path d="M15.75 20.25H29.25V21.75H15.75V20.25Z" fill="#0190C7"/>
<path d="M15.75 23.25H29.25V24.75H15.75V23.25Z" fill="#0190C7"/>
<path d="M36.75 23.3542V9.75C36.75 8.0955 35.4045 6.75 33.75 6.75H32.25V3.75C32.25 2.0955 30.9045 0.75 29.25 0.75H3.75C2.0955 0.75 0.75 2.0955 0.75 3.75V38.25C0.75 39.9045 2.0955 41.25 3.75 41.25H5.25V44.25C5.25 45.9045 6.5955 47.25 8.25 47.25H33.75C33.9202 47.25 34.0868 47.2275 34.2525 47.1997C34.5825 47.2267 34.9132 47.25 35.25 47.25C41.8665 47.25 47.25 41.8665 47.25 35.25C47.25 29.142 42.66 24.096 36.75 23.3542ZM33.75 8.25C34.5773 8.25 35.25 8.92275 35.25 9.75V23.25C34.2127 23.25 33.2108 23.3962 32.25 23.6453V8.25H33.75ZM2.25 38.25V3.75C2.25 2.92275 2.92275 2.25 3.75 2.25H29.25C30.0772 2.25 30.75 2.92275 30.75 3.75V24.1335C28.269 25.1415 26.2058 26.9557 24.8738 29.25H19.5V30.75H24.1335C23.937 31.2345 23.778 31.737 23.6453 32.25H15.75V33.75H23.3542C23.292 34.2427 23.25 34.7407 23.25 35.25H15.75V36.75H23.3542C23.4855 37.7977 23.7488 38.8035 24.1335 39.75H3.75C2.92275 39.75 2.25 39.0773 2.25 38.25ZM8.25 45.75C7.42275 45.75 6.75 45.0773 6.75 44.25V41.25H24.8738C25.9665 43.1317 27.5483 44.694 29.4533 45.75H8.25ZM35.25 45.75C29.46 45.75 24.75 41.04 24.75 35.25C24.75 29.46 29.46 24.75 35.25 24.75C41.04 24.75 45.75 29.46 45.75 35.25C45.75 41.04 41.04 45.75 35.25 45.75Z" fill="#0190C7"/>
<path d="M37.5001 26.25H33.0001C32.7931 26.25 32.5943 26.3355 32.4526 26.487C32.3116 26.6385 32.2381 26.8425 32.2516 27.0495L33.0016 38.2995C33.0278 38.694 33.3556 39 33.7501 39H36.7501C37.1446 39 37.4723 38.694 37.4986 38.2995L38.2486 27.0495C38.2628 26.8425 38.1893 26.6385 38.0476 26.487C37.9058 26.3355 37.7071 26.25 37.5001 26.25ZM36.0481 37.5H34.4513L33.8018 27.75H36.6976L36.0481 37.5Z" fill="#0190C7"/>
<path d="M36.75 39.75H33.75C33.3353 39.75 33 40.0853 33 40.5V43.5C33 43.9148 33.3353 44.25 33.75 44.25H36.75C37.1648 44.25 37.5 43.9148 37.5 43.5V40.5C37.5 40.0853 37.1648 39.75 36.75 39.75ZM36 42.75H34.5V41.25H36V42.75Z" fill="#0190C7"/>
</svg>
