<svg width="48" height="48" viewBox="0 0 48 48" fill="none" xmlns="http://www.w3.org/2000/svg">
<path d="M41.3372 13.6852V0H6.85917V13.5541L1.58057 16.7828V48H46.4195V16.782L41.3372 13.6852ZM6.85917 20.063L3.84102 17.3832L6.85917 15.5371V20.063ZM17.9777 32.1991L3.27185 45.2711V19.1388L17.9777 32.1991ZM24.0005 29.109L43.3507 46.3087H4.65031L24.0005 29.109ZM29.9818 32.1626L44.7283 19.132V45.2711L29.9818 32.1626ZM41.3372 15.6657L44.1549 17.3824L41.3372 19.8729V15.6657ZM8.55045 1.69129H39.6459V14.1604V21.3671L28.7083 31.0312L24.0005 26.8461L19.2513 31.0676L8.55045 21.565V14.0277V1.69129Z" fill="#0190C7"/>
<path d="M37.1402 4.50977H10.8176V6.20105H37.1402V4.50977Z" fill="#0190C7"/>
<path d="M37.1402 7.89258H10.8176V9.58386H37.1402V7.89258Z" fill="#0190C7"/>
<path d="M37.1402 11.2751H10.8176V12.9664H37.1402V11.2751Z" fill="#0190C7"/>
<path d="M37.1402 14.6577H10.8176V16.349H37.1402V14.6577Z" fill="#0190C7"/>
<path d="M37.1402 18.0403H10.8176V19.7316H37.1402V18.0403Z" fill="#0190C7"/>
</svg>
