<svg width="48" height="48" viewBox="0 0 48 48" fill="none" xmlns="http://www.w3.org/2000/svg">
<path d="M38.4696 1.71963L36.4393 3.75H33.75C33.5511 3.75001 33.3603 3.82903 33.2197 3.96968C33.079 4.11033 33 4.30109 33 4.5V7.18927L30.4393 9.75H27.75C27.5511 9.75001 27.3603 9.82903 27.2197 9.96968C27.079 10.1103 27 10.3011 27 10.5V13.1893L24.4393 15.75H21.75C21.5511 15.75 21.3603 15.829 21.2197 15.9697C21.079 16.1103 21 16.3011 21 16.5V19.1893L17.6894 22.5H15.1251C15.3325 21.2598 15.7984 20.0771 16.4925 19.0287C17.1867 17.9803 18.0936 17.0896 19.1544 16.4144L18.3456 15.1512C16.4321 16.3742 14.9666 18.1846 14.169 20.3109C13.3714 22.4372 13.2846 24.7648 13.9216 26.9446C14.5586 29.1245 15.8851 31.039 17.7022 32.4012C19.5193 33.7634 21.729 34.4998 24 34.5H33.6331C31.004 36.9107 27.567 38.2487 24 38.25C16.1425 38.25 9.75 31.8575 9.75 24H8.25C8.2496 25.2636 8.40146 26.5227 8.70229 27.75H3V20.25H9C9.14833 20.25 9.29332 20.206 9.41665 20.1236C9.53998 20.0412 9.63611 19.9241 9.69287 19.787L10.9043 16.8624C10.9611 16.7253 10.9759 16.5745 10.947 16.429C10.9181 16.2835 10.8467 16.1499 10.7418 16.045L6.49905 11.8024L11.8024 6.49905L16.045 10.7418C16.1499 10.8467 16.2835 10.9181 16.429 10.9471C16.5745 10.976 16.7253 10.9611 16.8624 10.9043L19.787 9.69287C19.9241 9.63611 20.0412 9.53998 20.1236 9.41665C20.206 9.29332 20.25 9.14833 20.25 9V3H27.75V7.5H29.25V2.25C29.25 2.05109 29.171 1.86033 29.0303 1.71968C28.8897 1.57903 28.6989 1.50001 28.5 1.5H19.5C19.3011 1.50001 19.1103 1.57903 18.9697 1.71968C18.829 1.86033 18.75 2.05109 18.75 2.25V8.49884L16.7513 9.32675L12.3328 4.90805C12.1921 4.76742 12.0013 4.68842 11.8024 4.68842C11.6035 4.68842 11.4127 4.76742 11.2721 4.90805L4.90805 11.2721C4.76742 11.4127 4.68842 11.6035 4.68842 11.8024C4.68842 12.0013 4.76742 12.1921 4.90805 12.3328L9.32675 16.7513L8.49884 18.75H2.25C2.05109 18.75 1.86033 18.829 1.71968 18.9697C1.57903 19.1103 1.50001 19.3011 1.5 19.5V28.5C1.50001 28.6989 1.57903 28.8897 1.71968 29.0303C1.86033 29.171 2.05109 29.25 2.25 29.25H8.49884L9.32675 31.2487L4.90805 35.6672C4.76742 35.8079 4.68842 35.9987 4.68842 36.1976C4.68842 36.3965 4.76742 36.5873 4.90805 36.7279L11.2721 43.0919C11.4127 43.2326 11.6035 43.3116 11.8024 43.3116C12.0013 43.3116 12.1921 43.2326 12.3328 43.0919L16.7513 38.6732L18.75 39.5012V45.75C18.75 45.9489 18.829 46.1397 18.9697 46.2803C19.1103 46.421 19.3011 46.5 19.5 46.5H28.5C28.6989 46.5 28.8897 46.421 29.0303 46.2803C29.171 46.1397 29.25 45.9489 29.25 45.75V39.5012L31.2487 38.6732L35.6672 43.0919C35.8079 43.2326 35.9987 43.3116 36.1976 43.3116C36.3965 43.3116 36.5873 43.2326 36.7279 43.0919L43.0919 36.7279C43.2326 36.5873 43.3116 36.3965 43.3116 36.1976C43.3116 35.9986 43.2325 35.8079 43.0919 35.6672L41.9247 34.5H45.75C45.9489 34.5 46.1397 34.421 46.2803 34.2803C46.421 34.1397 46.5 33.9489 46.5 33.75V8.25C46.5 8.05109 46.421 7.86033 46.2803 7.71968C46.1397 7.57903 45.9489 7.50001 45.75 7.5H39.75C39.5511 7.50001 39.3603 7.57903 39.2197 7.71968C39.079 7.86033 39 8.05109 39 8.25V13.5H33.75C33.5511 13.5 33.3603 13.579 33.2197 13.7197C33.079 13.8603 33 14.0511 33 14.25V18H27.75C27.5511 18 27.3603 18.079 27.2197 18.2197C27.079 18.3603 27 18.5511 27 18.75V23.25H21.75C21.5511 23.25 21.3603 23.329 21.2197 23.4697C21.079 23.6103 21 23.8011 21 24V27H15.5148C15.1733 26.0367 14.9992 25.022 15 24H18C18.1989 24 18.3897 23.921 18.5304 23.7804L22.0607 20.25H24.75C24.9489 20.25 25.1397 20.171 25.2803 20.0303C25.421 19.8897 25.5 19.6989 25.5 19.5V16.8107L28.0607 14.25H30.75C30.9489 14.25 31.1397 14.171 31.2803 14.0303C31.421 13.8897 31.5 13.6989 31.5 13.5V10.8107L34.0607 8.25H36.75C36.9489 8.24999 37.1397 8.17097 37.2803 8.03032C37.421 7.88967 37.5 7.69891 37.5 7.5V4.81073L39.3106 3H46.5V1.5H39C38.8011 1.50001 38.6103 1.57901 38.4696 1.71963ZM11.8024 41.5009L6.49905 36.1976L10.5344 32.1624C11.8531 34.3284 13.6716 36.1469 15.8376 37.4656L11.8024 41.5009ZM20.25 45V39.2977C22.7136 39.9012 25.2866 39.9008 27.75 39.2963V45H20.25ZM41.5009 36.1976L36.1976 41.5009L32.1633 37.4665C33.4949 36.6598 34.6996 35.66 35.7381 34.5H39.8033L41.5009 36.1976ZM40.5 9H45V33H40.5V9ZM34.5 15H39V33H34.5V15ZM28.5 19.5H33V33H28.5V19.5ZM22.5 24.75H27V33H24C23.4974 33 22.9956 32.9579 22.5 32.8743V24.75ZM21 28.5V32.4852C18.9812 31.7662 17.2831 30.3539 16.2082 28.5H21ZM24 18.75H22.5V17.25H24V18.75ZM30 12.75H28.5V11.25H30V12.75ZM36 6.75H34.5V5.25H36V6.75Z" fill="#0190C7"/>
</svg>
