<svg width="86" height="39" viewBox="0 0 86 39" fill="none" xmlns="http://www.w3.org/2000/svg">
<g clip-path="url(#clip0_49:923)">
<path d="M13.9652 23.7715C12.5921 25.1012 10.7746 25.7661 8.51253 25.7661C6.25031 25.7661 4.43281 25.0963 3.05982 23.7564C1.68663 22.4168 1.00024 20.6571 1.00024 18.4776V9.11987H5.32693V17.9678C5.32693 19.1276 5.60844 20.0323 6.17144 20.6821C6.73457 21.3319 7.51487 21.6568 8.51265 21.6568C9.51031 21.6568 10.2907 21.3319 10.8537 20.6821C11.4167 20.0323 11.6982 19.1274 11.6982 17.9678V9.11987H16.0249V18.4776C16.0249 20.6772 15.3384 22.4418 13.9653 23.7714L13.9652 23.7715ZM31.3769 3.27121H35.7037V25.3161H32.503L31.9993 23.9665C30.5769 25.1862 28.9073 25.7961 26.9911 25.7961C25.3908 25.7961 23.9486 25.4261 22.6645 24.6862C21.3802 23.9465 20.3775 22.9216 19.6565 21.6119C18.9354 20.3022 18.5749 18.8375 18.5749 17.218C18.5749 15.5981 18.9355 14.1386 19.6565 12.8389C20.3777 11.539 21.3804 10.5193 22.6645 9.77959C23.9486 9.03972 25.391 8.66975 26.9911 8.66975C28.611 8.66975 30.0731 9.10968 31.3769 9.9894V3.271V3.27121ZM24.2054 20.3973C25.035 21.237 26.0773 21.6568 27.3319 21.6568C28.5864 21.6568 29.6285 21.232 30.4583 20.3822C31.2881 19.5323 31.703 18.4725 31.703 17.2029C31.703 15.9331 31.2881 14.8785 30.4583 14.0386C29.6285 13.1987 28.5864 12.7789 27.3319 12.7789C26.0774 12.7789 25.0352 13.1987 24.2054 14.0386C23.3756 14.8784 22.9608 15.9381 22.9608 17.218C22.9608 18.4975 23.3756 19.5573 24.2054 20.3972V20.3973ZM48.6257 8.72993C50.4434 8.72993 51.8806 9.34481 52.9375 10.5745C53.9944 11.8042 54.5231 13.4489 54.5231 15.5083V25.3161H50.1964V16.1982C50.1964 13.7788 49.2679 12.5692 47.4108 12.5692C46.6797 12.5692 46.0426 12.7391 45.4993 13.079C44.9561 13.419 44.541 13.9088 44.2546 14.5487C43.9682 15.1885 43.8251 15.9384 43.8251 16.7981V25.3161H39.4984V9.11987H42.4619L43.3214 11.1294C43.6178 10.7495 43.9585 10.4146 44.3437 10.1247C44.729 9.83472 45.1489 9.58478 45.6034 9.37484C46.0578 9.16482 46.5368 9.00498 47.0405 8.89491C47.5444 8.78497 48.0728 8.73004 48.626 8.73004L48.6257 8.72993ZM73.6684 17.158C73.6684 17.5778 73.6389 18.0078 73.5796 18.4476H61.4886C61.6664 19.5476 62.0961 20.3922 62.7777 20.9822C63.4592 21.572 64.3335 21.8669 65.4004 21.8669C66.1313 21.8669 66.7932 21.7019 67.3858 21.3722C67.9786 21.0421 68.4427 20.5872 68.7786 20.0073H73.3422C72.7498 21.767 71.7421 23.1666 70.3198 24.2063C68.8972 25.246 67.2574 25.7661 65.4004 25.7661C63.0295 25.7661 61.054 24.9462 59.4734 23.3065C57.8929 21.6669 57.1027 19.6374 57.1027 17.218C57.1027 16.2582 57.2361 15.3384 57.5028 14.4585C57.7695 13.5788 58.1547 12.789 58.6586 12.0891C59.1622 11.3893 59.75 10.7844 60.4218 10.2745C61.0934 9.76467 61.854 9.36981 62.7035 9.08983C63.5532 8.80997 64.4521 8.66997 65.4004 8.66997C67.0005 8.66997 68.4378 9.04993 69.712 9.80973C70.9864 10.5695 71.9643 11.5993 72.6459 12.899C73.3274 14.1988 73.6684 15.6185 73.6684 17.158ZM65.4005 12.3891C64.4324 12.3891 63.6174 12.659 62.9556 13.1989C62.2937 13.7389 61.8442 14.4887 61.6072 15.4483H69.3419C69.1443 14.7885 68.8578 14.2336 68.4824 13.7838C68.107 13.3339 67.6577 12.9889 67.1339 12.749C66.6104 12.509 66.0326 12.3891 65.4005 12.3891ZM83.9828 21.4171H85.9388V25.3161H82.8862C81.7207 25.3161 80.7082 25.0863 79.8488 24.6264C78.9893 24.1665 78.3325 23.5015 77.878 22.6318C77.4237 21.762 77.1966 20.7273 77.1966 19.5275V12.6291H74.2924V11.6994L80.6341 4.89102H81.4341V9.12009H85.8498V12.6293H81.5231V18.9577C81.5231 19.7376 81.7355 20.3425 82.1602 20.7724C82.585 21.2023 83.1925 21.4172 83.9828 21.4172V21.4171Z" fill="#333333"/>
<path d="M8.51186 6.44107C10.2692 6.44107 11.6939 4.99919 11.6939 3.22053C11.6939 1.44188 10.2692 0 8.51186 0C6.75447 0 5.32983 1.44188 5.32983 3.22053C5.32983 4.99919 6.75447 6.44107 8.51186 6.44107Z" fill="#6666FF"/>
<path d="M58.44 28.9987H59.3355V36.8144H58.6508L58.5243 35.9933C57.9624 36.626 57.2354 36.9424 56.3435 36.9424C55.4867 36.9424 54.7826 36.6562 54.2313 36.0839C53.68 35.5118 53.4043 34.7955 53.4043 33.9355C53.4043 33.0682 53.68 32.3502 54.2313 31.7815C54.7826 31.2128 55.4867 30.9285 56.3435 30.9285C57.1864 30.9285 57.8852 31.2128 58.4401 31.7815V28.9985L58.44 28.9987ZM54.9106 35.4604C55.3039 35.8655 55.8009 36.0681 56.4014 36.0681C57.0019 36.0681 57.5023 35.8636 57.9027 35.455C58.3031 35.0463 58.503 34.5398 58.503 33.9355C58.503 33.3243 58.3048 32.816 57.9079 32.4108C57.5111 32.0056 57.0107 31.8031 56.4067 31.8031C56.1117 31.8031 55.8343 31.8581 55.5742 31.9684C55.3145 32.0786 55.0933 32.2261 54.9106 32.4108C54.728 32.5957 54.584 32.8213 54.4787 33.0879C54.3734 33.3544 54.3207 33.637 54.3207 33.9355C54.3207 34.5469 54.5173 35.0552 54.9106 35.4604ZM61.1054 30.0543V29.02H62.0746V30.0543H61.1054ZM61.1477 36.8145V31.0567H62.0431V36.8145H61.1477ZM68.5433 31.0567H69.1438V36.0042C69.1438 36.9354 68.8945 37.6675 68.3958 38.2007C67.8972 38.7338 67.2158 39.0004 66.3519 39.0004C65.6566 39.0004 65.072 38.826 64.598 38.4778C64.1238 38.1296 63.8095 37.6497 63.6549 37.0384H64.5505C64.6768 37.3939 64.9034 37.671 65.2299 37.8702C65.5564 38.0692 65.9305 38.1686 66.3519 38.1686C66.9278 38.1686 67.3897 37.9856 67.7373 37.6195C68.085 37.2535 68.2588 36.7541 68.2588 36.1214V35.7694C67.718 36.3453 67.0298 36.633 66.1939 36.633C65.4002 36.633 64.7348 36.3594 64.1974 35.8122C63.6603 35.2646 63.3916 34.5894 63.3916 33.7862C63.3916 33.2602 63.5144 32.7786 63.7603 32.3415C64.0061 31.9043 64.3431 31.5593 64.7716 31.3071C65.2 31.0548 65.6741 30.9286 66.1939 30.9286C66.6364 30.9286 67.0491 31.0192 67.4318 31.2004C67.8145 31.3817 68.1358 31.6324 68.3958 31.9521L68.5433 31.0564V31.0567ZM66.2888 35.7589C66.661 35.7589 66.9981 35.6737 67.3001 35.5031C67.6021 35.3324 67.8374 35.0979 68.006 34.7993C68.1746 34.5006 68.2588 34.163 68.2588 33.7862C68.2588 33.2105 68.0727 32.736 67.7005 32.3628C67.3282 31.9897 66.8576 31.8031 66.2888 31.8031C65.7198 31.8031 65.2475 31.9914 64.8717 32.3681C64.4959 32.7449 64.3081 33.2175 64.3081 33.7862C64.3081 34.3479 64.4959 34.8168 64.8717 35.1936C65.2475 35.5704 65.7198 35.7587 66.2888 35.7587V35.7589ZM70.9031 30.0545V29.0201H71.8725V30.0545H70.9031ZM70.9454 36.8147V31.0567H71.8408V36.8147H70.9454ZM75.9917 35.9722H76.6132V36.8147H75.8758C75.2649 36.8147 74.7836 36.6351 74.4324 36.2761C74.0814 35.9172 73.9057 35.425 73.9057 34.7994V31.8778H72.9048V31.718L74.6641 29.8413H74.8011V31.0567H76.5815V31.8778H74.8011V34.7676C74.8011 35.0305 74.8467 35.2508 74.938 35.4285C75.0293 35.6063 75.1646 35.7415 75.3437 35.8338C75.5227 35.9262 75.7388 35.9724 75.9916 35.9724L75.9917 35.9722ZM82.5867 31.0567H83.3031V36.8147H82.555L82.4602 35.9404C82.1932 36.2601 81.8685 36.5072 81.4857 36.6814C81.1029 36.8555 80.6833 36.9426 80.2267 36.9426C79.3909 36.9426 78.6922 36.6565 78.1303 36.0842C77.5684 35.512 77.2875 34.7958 77.2875 33.9357C77.2875 33.0755 77.5684 32.3594 78.1303 31.7871C78.6922 31.215 79.3909 30.9288 80.2267 30.9288C80.6904 30.9288 81.1135 31.0177 81.4962 31.1954C81.879 31.373 82.2038 31.6219 82.4706 31.9417L82.5866 31.0567H82.5867ZM78.7992 35.4551C79.1962 35.8639 79.6966 36.0682 80.3007 36.0682C80.9045 36.0682 81.4033 35.8658 81.7965 35.4606C82.1898 35.0553 82.3866 34.5472 82.3866 33.9358C82.3866 33.3244 82.1898 32.8162 81.7965 32.4111C81.4033 32.0057 80.9045 31.8033 80.3007 31.8033C79.6966 31.8033 79.1962 32.0076 78.7992 32.4162C78.4025 32.825 78.2041 33.3316 78.2041 33.9358C78.2041 34.5399 78.4025 35.0465 78.7992 35.4551ZM85.1047 36.8147V28.9988H86.0001V36.8147H85.1047Z" fill="#333333"/>
</g>
<defs>
<clipPath id="clip0_49:923">
<rect width="86" height="39" fill="white"/>
</clipPath>
</defs>
</svg>
